Coordinates
version=1
nRows=16
nColumns=40
inDegrees=yes

Units are S.I. units (second, meters, Newtons, ...)
If the header above contains a line with 'inDegrees', this indicates whether rotational values are in degrees (yes) or radians (no).

endheader
time	pelvis_tilt	pelvis_list	pelvis_rotation	pelvis_tx	pelvis_ty	pelvis_tz	hip_flexion_r	hip_adduction_r	hip_rotation_r	knee_angle_r	knee_angle_r_beta	ankle_angle_r	subtalar_angle_r	mtp_angle_r	hip_flexion_l	hip_adduction_l	hip_rotation_l	knee_angle_l	knee_angle_l_beta	ankle_angle_l	subtalar_angle_l	mtp_angle_l	lumbar_extension	lumbar_bending	lumbar_rotation	arm_flex_r	arm_add_r	arm_rot_r	elbow_flex_r	pro_sup_r	wrist_flex_r	wrist_dev_r	arm_flex_l	arm_add_l	arm_rot_l	elbow_flex_l	pro_sup_l	wrist_flex_l	wrist_dev_l
      4.27500000	    -29.39668606	     -2.42120357	     -0.85251881	     -0.32586893	      0.72148436	     -0.97563099	     32.40351245	     -6.29617425	      8.99093507	     89.03018952	      1.55386994	    -28.84950154	      0.00000000	      0.00000000	     81.69566396	     -5.23089446	     -3.88590292	     89.02552475	      1.55378853	     22.44634190	      0.00000000	      0.00000000	    -14.15601530	    -12.20408998	      8.34763871	     73.60640944	     -2.90423420	     25.34709515	     86.06240195	      3.46460530	      0.00000000	      0.00000000	     84.36236819	    -18.13034988	     37.68308117	     83.72278887	     71.57367704	      0.00000000	      0.00000000
      4.28000000	    -29.37766483	     -2.27632191	     -0.90345191	     -0.32578487	      0.72281736	     -0.97588090	     32.56621695	     -6.43222191	      9.01283746	     89.02985045	      1.55386402	    -29.28060974	      0.00000000	      0.00000000	     81.40005256	     -5.17089454	     -4.06243217	     88.64420233	      1.54713319	     22.94859743	      0.00000000	      0.00000000	    -14.08801303	    -12.35099098	      8.49976180	     73.37387347	     -3.08291790	     25.16255061	     86.50056556	      3.17622673	      0.00000000	      0.00000000	     84.11960876	    -17.86312274	     37.55471822	     83.88105085	     69.01581863	      0.00000000	      0.00000000
      4.28500000	    -29.35553686	     -2.31820433	     -0.85192491	     -0.32563616	      0.72397716	     -0.97601438	     32.65226963	     -6.37931952	      8.87877470	     89.07131905	      1.55458779	    -29.39570138	      0.00000000	      0.00000000	     81.25749337	     -5.13478521	     -4.04134655	     88.42262002	      1.54326585	     22.74061989	      0.00000000	      0.00000000	    -14.01438565	    -12.26908523	      8.37813233	     73.28022541	     -2.95266000	     25.09663587	     86.48249646	      3.18869527	      0.00000000	      0.00000000	     84.00015214	    -17.99329052	     37.59162210	     84.08184404	     67.40464412	      0.00000000	      0.00000000
      4.29000000	    -29.21058164	     -2.22825968	     -0.99221566	     -0.32535284	      0.72546364	     -0.97592565	     32.63458906	     -6.38154766	      8.98593251	     89.09846658	      1.55506160	    -29.16756093	      0.00000000	      0.00000000	     80.92545626	     -5.26089388	     -4.15593732	     88.21804334	      1.53969532	     22.48487246	      0.00000000	      0.00000000	    -14.06254181	    -12.37894461	      8.46120215	     73.24459579	     -2.92458272	     25.08716781	     86.53391768	      3.16457944	      0.00000000	      0.00000000	     83.94222798	    -17.99216791	     37.01121426	     83.79271712	     76.02966200	      0.00000000	      0.00000000
      4.29500000	    -29.23082351	     -2.30333742	     -0.92997187	     -0.32532457	      0.72656494	     -0.97610642	     32.78828582	     -6.32834881	      8.78968098	     89.12559805	      1.55553513	    -29.46896472	      0.00000000	      0.00000000	     80.80727335	     -5.17421777	     -4.03476129	     87.94075048	      1.53485564	     22.59243929	      0.00000000	      0.00000000	    -13.93805192	    -12.26331798	      8.40831264	     73.12113683	     -2.94212136	     25.09393910	     86.64824269	      3.36910583	      0.00000000	      0.00000000	     83.83999167	    -17.98845612	     37.22833099	     83.93691462	     71.72541041	      0.00000000	      0.00000000
      4.30000000	    -29.16247225	     -2.27179852	     -1.02100602	     -0.32514658	      0.72784773	     -0.97602455	     32.86086490	     -6.30317442	      8.78591283	     89.19449231	      1.55673757	    -29.34772281	      0.00000000	      0.00000000	     80.60518134	     -5.27494296	     -4.08210120	     87.74035310	      1.53135805	     22.48171899	      0.00000000	      0.00000000	    -13.88432899	    -12.28206257	      8.40855758	     73.08281312	     -2.80816730	     25.09800401	     86.58724877	      3.18485378	      0.00000000	      0.00000000	     83.73237805	    -18.15042957	     37.38440416	     84.17367026	     69.57039181	      0.00000000	      0.00000000
      4.30500000	    -29.10654168	     -2.22354697	     -1.07394285	     -0.32499816	      0.72915776	     -0.97594739	     32.93281361	     -6.25189830	      8.82862976	     89.26599534	      1.55798553	    -29.24026642	      0.00000000	      0.00000000	     80.45093750	     -5.33397157	     -4.10942150	     87.55910151	      1.52819461	     21.96099526	      0.00000000	      0.00000000	    -13.81529543	    -12.32828263	      8.40808792	     73.00005960	     -2.72408546	     25.11142812	     86.52458330	      3.14397040	      0.00000000	      0.00000000	     83.65815593	    -18.16406960	     36.92029508	     83.97836596	     75.87897783	      0.00000000	      0.00000000
      4.31000000	    -28.99654332	     -2.21298173	     -1.03153946	     -0.32479070	      0.73056383	     -0.97620944	     32.93515999	     -6.27665946	      8.72262469	     89.31929782	      1.55891583	    -29.21972611	      0.00000000	      0.00000000	     80.11814158	     -5.27645970	     -4.16781582	     87.26587129	      1.52307678	     22.06514318	      0.00000000	      0.00000000	    -13.83095604	    -12.31640770	      8.35225768	     72.94350859	     -2.73704794	     25.11250048	     86.54025164	      3.15895066	      0.00000000	      0.00000000	     83.58857701	    -18.12439817	     36.85886412	     83.90382583	     75.99142273	      0.00000000	      0.00000000
      4.31500000	    -28.95990584	     -2.24392828	     -1.07551930	     -0.32461907	      0.73188256	     -0.97603142	     33.01132378	     -6.14118281	      8.72963153	     89.35267330	      1.55949834	    -29.28598786	      0.00000000	      0.00000000	     79.92240172	     -5.31477957	     -4.12178706	     87.02114251	      1.51880546	     21.99759135	      0.00000000	      0.00000000	    -13.74592910	    -12.28090457	      8.28557394	     72.92328507	     -2.57148257	     25.13178313	     86.34283951	      3.51478492	      0.00000000	      0.00000000	     83.53732131	    -18.35357764	     37.16905994	     84.19606717	     72.53108817	      0.00000000	      0.00000000
      4.32000000	    -28.86782556	     -2.16859952	     -1.14055780	     -0.32435468	      0.73334443	     -0.97607437	     33.03298579	     -6.15478586	      8.75398221	     89.36473099	      1.55970879	    -29.19774156	      0.00000000	      0.00000000	     79.63814861	     -5.41550475	     -4.31122464	     86.77762741	      1.51455532	     21.88816142	      0.00000000	      0.00000000	    -13.71897818	    -12.37511126	      8.38708526	     72.78809175	     -2.66437535	     25.06954774	     86.61855497	      3.17567706	      0.00000000	      0.00000000	     83.41331836	    -18.18581539	     36.81916176	     84.01256311	     76.14229313	      0.00000000	      0.00000000
      4.32500000	    -28.81282290	     -2.20447983	     -1.10070900	     -0.32412247	      0.73469487	     -0.97625752	     33.07042168	     -6.15245931	      8.62308327	     89.40208088	      1.56036067	    -29.19250943	      0.00000000	      0.00000000	     79.41560154	     -5.40357516	     -4.35345813	     86.54401044	      1.51047793	     21.76325405	      0.00000000	      0.00000000	    -13.64351036	    -12.30361395	      8.36514637	     72.68134436	     -2.68377847	     25.05439442	     86.63308195	      3.17993185	      0.00000000	      0.00000000	     83.30444157	    -18.18266928	     36.80692093	     84.03165946	     76.14527382	      0.00000000	      0.00000000
      4.33000000	    -28.74004443	     -2.20101434	     -1.08563995	     -0.32401071	      0.73610745	     -0.97637467	     33.11794583	     -6.13061258	      8.55954291	     89.45184635	      1.56122924	    -29.19900137	      0.00000000	      0.00000000	     79.20698239	     -5.38321343	     -4.35659249	     86.29617670	      1.50615242	     21.65779235	      0.00000000	      0.00000000	    -13.61742083	    -12.28817145	      8.32628294	     72.60743351	     -2.68284475	     25.05338976	     86.66959900	      3.18448931	      0.00000000	      0.00000000	     83.23330481	    -18.18134802	     36.77021336	     84.04099684	     76.14827922	      0.00000000	      0.00000000
      4.33500000	    -28.68240919	     -2.17086450	     -1.03821199	     -0.32375865	      0.73753091	     -0.97654420	     33.14795575	     -6.19605229	      8.42762722	     89.46804085	      1.56151189	    -29.21492146	      0.00000000	      0.00000000	     78.97858145	     -5.31012136	     -4.37492240	     85.99883119	      1.50096276	     21.48471322	      0.00000000	      0.00000000	    -13.56778049	    -12.28256869	      8.23095748	     72.51724472	     -2.63156900	     25.03659483	     86.68110605	      3.19573930	      0.00000000	      0.00000000	     83.11985908	    -18.20473510	     36.63149452	     84.05722482	     76.15045017	      0.00000000	      0.00000000
      4.34000000	    -28.59356570	     -2.17995082	     -1.03468469	     -0.32341776	      0.73891829	     -0.97668512	     33.14790141	     -6.20424475	      8.34059112	     89.50687630	      1.56218969	    -29.23370950	      0.00000000	      0.00000000	     78.73387326	     -5.31019677	     -4.36318320	     85.78847704	      1.49729138	     21.33341238	      0.00000000	      0.00000000	    -13.51429089	    -12.26762702	      8.20846254	     72.41252951	     -2.62174735	     25.07349249	     86.67588065	      3.19995467	      0.00000000	      0.00000000	     83.00645482	    -18.20385155	     36.63656718	     84.07500232	     76.15729710	      0.00000000	      0.00000000
      4.34500000	    -28.57230795	     -2.23801892	     -1.02562134	     -0.32335517	      0.74033724	     -0.97660696	     33.23751375	     -6.09788197	      8.26969398	     89.55104314	      1.56296055	    -29.24216032	      0.00000000	      0.00000000	     78.55582542	     -5.38009777	     -4.38662796	     85.51320983	      1.49248707	     21.18069295	      0.00000000	      0.00000000	    -13.41816813	    -12.20437271	      8.18599704	     72.34012900	     -2.62240843	     25.07237854	     86.71534526	      3.20362319	      0.00000000	      0.00000000	     82.93223227	    -18.21351568	     36.63020807	     84.12482220	     76.16359310	      0.00000000	      0.00000000
      4.35000000	    -28.44891261	     -2.08907009	     -0.93652719	     -0.32304442	      0.74198052	     -0.97703872	     33.18240637	     -6.29977140	      8.24039319	     89.52734834	      1.56254700	    -29.33353941	      0.00000000	      0.00000000	     78.20078394	     -5.18089809	     -4.49768045	     85.15871980	      1.48630005	     20.93079193	      0.00000000	      0.00000000	    -13.45471398	    -12.32810083	      8.03100953	     72.25469194	     -2.56145413	     24.99285825	     86.78867360	      3.20776621	      0.00000000	      0.00000000	     82.80943954	    -18.20997411	     36.50378895	     84.18739412	     76.18340561	      0.00000000	      0.00000000
